<svg width="239" height="53" viewBox="0 0 239 53" fill="none" xmlns="http://www.w3.org/2000/svg">
    <path
        d="M35.5737 15.9195H32.1604C32.1829 16.4189 32.3002 16.9932 32.4526 17.6998C32.5 17.922 32.5499 18.1517 32.5949 18.384H34.2428V18.8159C34.2428 21.2105 33.0144 23.3378 31.1142 24.6912L29.0018 28.3492C33.5412 27.233 36.8996 23.3828 36.8996 18.8159V17.1505C36.8996 16.4688 36.3053 15.9195 35.5712 15.9195H35.5737Z"
        fill="currentColor" />
    <path
        d="M15.7879 24.6912C13.8852 23.3403 12.6567 21.2105 12.6567 18.8159V18.384H14.3047C14.3496 18.1517 14.3996 17.922 14.447 17.6998C14.5993 16.9907 14.7167 16.4164 14.7392 15.9195H11.3284C10.5943 15.9195 10 16.4688 10 17.1505V18.8159C10 23.3828 13.3584 27.233 17.9003 28.3492L15.7879 24.6912Z"
        fill="currentColor" />
    <path
        d="M25.2012 33.3504C24.914 33.0833 24.8491 32.6788 25.0414 32.3467L30.7194 22.5138C31.2437 21.6099 31.4685 20.5562 31.3336 19.52C31.2862 19.1405 31.2113 18.7609 31.1314 18.3864C30.9566 17.5474 30.7543 16.7259 30.7269 15.9219C30.6994 15.1254 30.8442 14.3464 31.3661 13.5898C31.7581 13.018 31.3087 12.2739 30.5696 12.2739H16.3321C15.7803 12.2739 15.3883 12.6884 15.3883 13.1354C15.3883 13.2877 15.4332 13.445 15.5331 13.5898C16.055 14.3489 16.2023 15.1279 16.1723 15.9219C16.1474 16.7259 15.9426 17.5474 15.7678 18.3864C15.6879 18.7609 15.613 19.1405 15.5656 19.52C15.4307 20.5562 15.6605 21.6099 16.1848 22.5138L21.8628 32.3467C22.0526 32.6788 21.9877 33.0858 21.703 33.3504L16.1998 38.4741C15.6155 39.0184 16.0375 39.9373 16.869 39.9373H30.0277C30.8617 39.9373 31.2837 39.0184 30.6969 38.4741L25.1987 33.3504H25.2012Z"
        fill="currentColor" />
    <path d="M48.115 16.8809H43.9727V35.3257H55.3436V31.6877H48.115V16.8809Z" fill="currentColor" />
    <path
        d="M62.1156 27.6701H69.0895V24.2344H62.1156V20.3167H69.494V16.8809H58.0705V35.3257H69.6687V31.8899H62.1156V27.6701Z"
        fill="currentColor" />
    <path
        d="M77.4261 16.8809L71.3361 35.3257H75.481L76.9442 30.7513H84.6447L86.1453 35.3257H90.44L84.1228 16.8809H77.4261ZM78.0428 27.3156L80.2901 20.2917H81.2139L83.5186 27.3156H78.0428Z"
        fill="currentColor" />
    <path
        d="M100.268 28.7314H105.095V30.2445C104.755 30.669 104.318 31.0336 103.782 31.3357C102.94 31.8076 101.946 32.0423 100.8 32.0423C99.9414 32.0423 99.1623 31.9 98.4632 31.6128C97.7641 31.3257 97.1773 30.9187 96.7079 30.3869C96.236 29.8575 95.8789 29.2258 95.6342 28.4917C95.3895 27.7576 95.2671 26.9461 95.2671 26.0522C95.2671 25.1583 95.382 24.4067 95.6092 23.6901C95.8364 22.9735 96.1735 22.3543 96.6205 21.8324C97.0674 21.3105 97.6068 20.9085 98.2385 20.6314C98.8702 20.3542 99.5893 20.2144 100.398 20.2144C101.207 20.2144 101.969 20.3542 102.636 20.6314C103.3 20.9085 103.849 21.3006 104.279 21.8074C104.708 22.3118 104.983 22.9011 105.1 23.5753H109.245C109.128 22.1445 108.681 20.8836 107.907 19.7974C107.133 18.7113 106.104 17.8598 104.823 17.2456C103.542 16.6313 102.069 16.3217 100.401 16.3217C98.8677 16.3217 97.5169 16.5964 96.3458 17.1432C95.1748 17.69 94.1985 18.4166 93.4144 19.3155C92.6304 20.2169 92.0411 21.2232 91.6466 22.3343C91.2496 23.4454 91.0523 24.584 91.0523 25.7451V26.3019C91.0523 27.4305 91.2496 28.5591 91.6466 29.6877C92.0411 30.8163 92.6404 31.8451 93.4394 32.7714C94.2384 33.6978 95.2547 34.4394 96.4831 34.9962C97.7116 35.553 99.1523 35.8301 100.803 35.8301C102.638 35.8301 104.251 35.4856 105.642 34.7939C107.033 34.1023 108.121 33.1185 108.913 31.8376V28.7289H110.428V25.7226H100.271V28.7289L100.268 28.7314Z"
        fill="currentColor" />
    <path
        d="M124.754 27.9723C124.754 28.7987 124.606 29.5054 124.312 30.0946C124.017 30.6839 123.575 31.1383 122.986 31.458C122.397 31.7776 121.68 31.9374 120.839 31.9374C119.997 31.9374 119.285 31.7776 118.704 31.458C118.122 31.1383 117.675 30.6789 117.365 30.0797C117.053 29.4829 116.898 28.7788 116.898 27.9698V16.8809H112.754V27.8224C112.754 29.4554 113.066 30.8712 113.687 32.0672C114.312 33.2632 115.225 34.1896 116.429 34.8463C117.632 35.503 119.103 35.8326 120.839 35.8326C122.574 35.8326 124.065 35.5055 125.261 34.8463C126.457 34.1896 127.365 33.2632 127.99 32.0672C128.614 30.8712 128.924 29.4554 128.924 27.8224V16.8809H124.754V27.9747V27.9723Z"
        fill="currentColor" />
    <path
        d="M136.728 27.6701H143.702V24.2344H136.728V20.3167H144.107V16.8809H132.686V35.3257H144.284V31.8899H136.728V27.6701Z"
        fill="currentColor" />
    <path
        d="M158.284 25.1057C157.256 24.6437 156.07 24.3516 154.721 24.2343L153.305 24.1069C152.464 24.0395 151.857 23.8123 151.485 23.4253C151.116 23.0382 150.928 22.5913 150.928 22.0869C150.928 21.6649 151.031 21.2829 151.231 20.9358C151.433 20.5912 151.74 20.3216 152.152 20.1268C152.564 19.9346 153.073 19.8372 153.68 19.8372C154.319 19.8372 154.856 19.952 155.286 20.1793C155.715 20.4065 156.04 20.7086 156.259 21.0881C156.479 21.4677 156.589 21.8847 156.589 22.3391H160.631C160.631 21.1431 160.354 20.0944 159.797 19.193C159.241 18.2916 158.447 17.5875 157.41 17.0831C156.374 16.5787 155.133 16.324 153.682 16.324C152.232 16.324 151.106 16.5562 150.094 17.0182C149.083 17.4826 148.297 18.1418 147.732 19.0032C147.168 19.8621 146.886 20.8884 146.886 22.0869C146.886 23.7199 147.433 25.0308 148.529 26.0146C149.622 27.0008 151.088 27.5776 152.926 27.7449L154.317 27.8448C155.445 27.9447 156.262 28.1694 156.769 28.514C157.273 28.8586 157.528 29.328 157.528 29.9172C157.528 30.3892 157.393 30.8061 157.123 31.1682C156.854 31.5303 156.457 31.8124 155.935 32.0147C155.413 32.2169 154.764 32.3168 153.99 32.3168C153.131 32.3168 152.432 32.1944 151.892 31.9497C151.353 31.705 150.953 31.3804 150.691 30.9784C150.429 30.5739 150.299 30.137 150.299 29.6651H146.257C146.257 30.8611 146.556 31.9198 147.153 32.8361C147.75 33.755 148.624 34.4816 149.767 35.021C150.913 35.5603 152.319 35.83 153.987 35.83C155.553 35.83 156.901 35.5853 158.03 35.0984C159.158 34.609 160.03 33.9198 160.644 33.0259C161.258 32.1345 161.565 31.0983 161.565 29.9172C161.565 28.7362 161.276 27.7999 160.694 26.9983C160.112 26.1993 159.308 25.5676 158.282 25.1032L158.284 25.1057Z"
        fill="currentColor" />
    <path d="M167.783 30.8037H163.336V35.3256H167.783V30.8037Z" fill="currentColor" />
    <path
        d="M171.094 16.8809V35.3257H175.239V27.9198L181.858 27.8973V24.4616H175.239V20.3167H182.161V16.8809H171.094Z"
        fill="currentColor" />
    <path
        d="M196.892 27.9723C196.892 28.7987 196.744 29.5054 196.45 30.0946C196.155 30.6839 195.713 31.1383 195.124 31.458C194.535 31.7776 193.818 31.9374 192.977 31.9374C192.135 31.9374 191.423 31.7776 190.842 31.458C190.26 31.1383 189.813 30.6789 189.503 30.0797C189.191 29.4829 189.036 28.7788 189.036 27.9698V16.8809H184.891V27.8224C184.891 29.4554 185.204 30.8712 185.828 32.0672C186.452 33.2632 187.366 34.1896 188.569 34.8463C189.773 35.503 191.244 35.8326 192.979 35.8326C194.714 35.8326 196.205 35.5055 197.401 34.8463C198.597 34.1896 199.506 33.2632 200.13 32.0672C200.754 30.8712 201.064 29.4554 201.064 27.8224V16.8809H196.894V27.9747L196.892 27.9723Z"
        fill="currentColor" />
    <path
        d="M218.925 16.8809V31.9648H218.573L211.624 16.8809H204.827V35.3257H208.668V20.2418H209.02L215.969 35.3257H222.818V16.8809H218.925Z"
        fill="currentColor" />
    <path d="M224.546 17.1804H225.165V18.9358H225.655V17.1804H226.274V16.7485H224.546V17.1804Z"
        fill="currentColor" />
    <path
        d="M228.311 16.7485L227.816 17.9769H227.759L227.257 16.7485H226.581V18.9358H227.03V17.2578L227.537 18.4938H228.004L228.513 17.2453V18.9358H229V16.7485H228.311Z"
        fill="currentColor" />
</svg>
    